<?xml version="1.0" encoding="utf-8" ?>
<svg baseProfile="full" height="200mm" version="1.1" viewBox="0 0 200 200" width="200mm" xmlns="http://www.w3.org/2000/svg" xmlns:ev="http://www.w3.org/2001/xml-events" xmlns:xlink="http://www.w3.org/1999/xlink"><defs /><g><circle cx="100.0" cy="100.0" fill="none" r="70.0" stroke="black" stroke-width="1.5" /></g><g><polygon fill="none" points="69.41875943162802,96.21781599466577 52.96052979299389,96.21781599466577 52.96052979299388,79.75958635603165 69.41875943162802,79.75958635603165" stroke="black" stroke-width="1.2" /><circle cx="61.18964461231095" cy="87.98870117534871" fill="none" r="3.4913177351410836" stroke="black" stroke-width="1.2" /></g><g><polygon fill="none" points="147.0394702070061,96.21781599466577 130.58124056837198,96.21781599466577 130.58124056837198,79.75958635603165 147.0394702070061,79.75958635603165" stroke="black" stroke-width="1.2" /><circle cx="138.81035538768904" cy="87.98870117534871" fill="none" r="3.4913177351410836" stroke="black" stroke-width="1.2" /></g><line stroke="black" stroke-width="1.2" x1="47.32014447275803" x2="75.05914475186387" y1="65.40807974885736" y2="68.67350978014706" /><line stroke="black" stroke-width="1.2" x1="124.84753248573188" x2="152.7731782896462" y1="67.30226952800933" y2="66.77932000099509" /><g><circle cx="96.45689959323269" cy="107.04310040676731" fill="black" r="2" stroke="none" /><circle cx="103.54310040676731" cy="107.04310040676731" fill="black" r="2" stroke="none" /></g><g><rect fill="none" height="9.421377498128065" stroke="black" stroke-width="1.2" width="47.106887490640325" x="76.44655625467983" y="123.69924539955569" /></g><g><line stroke="black" stroke-width="1.2" x1="78.36881039375369" x2="72.99380908770121" y1="33.426043859339245" y2="16.883490827406064" /><line stroke="black" stroke-width="1.2" x1="115.57646537694201" x2="118.13769622660062" y1="31.755046147272353" y2="20.533560597676498" /><line stroke="black" stroke-width="1.2" x1="148.37438542908052" x2="156.92823880808427" y1="49.404359532082594" y2="40.45773031208259" /><line stroke="black" stroke-width="1.2" x1="167.47740024870973" x2="179.7001181711203" y1="81.37742081033274" y2="78.004165000475" /><line stroke="black" stroke-width="1.2" x1="167.47740024870973" x2="180.18791416987392" y1="118.62257918966726" y2="122.13045814122444" /><line stroke="black" stroke-width="1.2" x1="148.37438542908052" x2="157.57296353250246" y1="150.5956404679174" y2="160.21659888234745" /><line stroke="black" stroke-width="1.2" x1="115.57646537694201" x2="121.16260900027659" y1="168.24495385272763" y2="192.71944819812063" /><line stroke="black" stroke-width="1.2" x1="78.36881039375369" x2="74.42812529286944" y1="166.57395614066075" y2="178.702137800844" /></g></svg>