<?xml version="1.0" encoding="utf-8" ?>
<svg baseProfile="full" height="200mm" version="1.1" viewBox="0 0 200 200" width="200mm" xmlns="http://www.w3.org/2000/svg" xmlns:ev="http://www.w3.org/2001/xml-events" xmlns:xlink="http://www.w3.org/1999/xlink"><defs /><g><polygon fill="none" points="170.0,100.0 135.0,160.6217782649107 65.00000000000001,160.62177826491072 30.0,100.00000000000001 64.99999999999997,39.37822173508931 135.0,39.3782217350893" stroke="black" stroke-width="1.5" /></g><g><circle cx="62.80929390440174" cy="80.44861552696763" fill="none" r="9.636659509368107" stroke="black" stroke-width="1.2" /><line stroke="black" stroke-width="1.2" x1="57.99096414971769" x2="67.6276236590858" y1="80.44861552696763" y2="80.44861552696763" /><line stroke="black" stroke-width="1.2" x1="62.80929390440174" x2="62.80929390440174" y1="75.63028577228357" y2="85.26694528165169" /></g><g><circle cx="137.19070609559827" cy="80.44861552696763" fill="none" r="9.636659509368107" stroke="black" stroke-width="1.2" /><line stroke="black" stroke-width="1.2" x1="132.37237634091423" x2="142.00903585028232" y1="80.44861552696763" y2="80.44861552696763" /><line stroke="black" stroke-width="1.2" x1="137.19070609559827" x2="137.19070609559827" y1="75.63028577228357" y2="85.26694528165169" /></g><g><line stroke="black" stroke-width="1.2" x1="100.0" x2="100.0" y1="93.84175590982107" y2="113.15824409017893" /></g><g><rect fill="none" height="7.049311504967576" stroke="black" stroke-width="1.2" width="35.246557524837876" x="82.37672123758107" y="122.62059276589154" /></g><g><line stroke="black" stroke-width="1.2" x1="78.36881039375369" x2="69.77315476321341" y1="33.426043859339245" y2="6.971336033997673" /><line stroke="black" stroke-width="1.2" x1="107.31699242873574" x2="109.6831436260822" y1="30.383467324220874" y2="7.871042478871544" /><line stroke="black" stroke-width="1.2" x1="135.0" x2="143.56123249732872" y1="39.37822173508929" y2="24.549732074306178" /><line stroke="black" stroke-width="1.2" x1="156.63118960624632" x2="170.86045182179464" y1="58.85503233952688" y2="48.51686819779125" /><line stroke="black" stroke-width="1.2" x1="168.47033205136637" x2="190.57443181099694" y1="85.44618164275684" y2="80.74781019903861" /><line stroke="black" stroke-width="1.2" x1="168.4703320513664" x2="184.32326585072778" y1="114.55381835724314" y2="117.92346345801788" /><line stroke="black" stroke-width="1.2" x1="156.63118960624632" x2="166.1672226155002" y1="141.14496766047313" y2="148.07330119015901" /><line stroke="black" stroke-width="1.2" x1="135.0" x2="147.61332534792933" y1="160.62177826491072" y2="182.4686986199207" /><line stroke="black" stroke-width="1.2" x1="107.31699242873576" x2="109.54358972911811" y1="169.61653267577913" y2="190.80119088440495" /><line stroke="black" stroke-width="1.2" x1="78.36881039375369" x2="74.51840550071567" y1="166.57395614066075" y2="178.4242838914229" /></g></svg>